<mxfile host="app.diagrams.net" modified="2022-08-05T17:02:13.648Z" agent="5.0 (Windows NT 10.0; Win64; x64) AppleWebKit/537.36 (KHTML, like Gecko) Chrome/103.0.5060.134 Safari/537.36 Edg/103.0.1264.71" etag="2TQyZTMjrkd-hou3NLi3" version="20.2.3" type="github">
  <diagram id="Ab9nmwnULIaLbW1yy6V-" name="Seite-1">
    <mxGraphModel dx="2012" dy="635" grid="1" gridSize="10" guides="1" tooltips="1" connect="1" arrows="1" fold="1" page="1" pageScale="1" pageWidth="827" pageHeight="1169" math="0" shadow="0">
      <root>
        <mxCell id="0" />
        <mxCell id="1" parent="0" />
        <mxCell id="E6454Eb-Kwbi7CJtDsJ3-1" value="&lt;i&gt;&lt;font color=&quot;#b0c1cc&quot;&gt;From&lt;/font&gt;&lt;/i&gt;" style="html=1;shadow=0;dashed=0;shape=mxgraph.bootstrap.rrect;rSize=5;fontSize=14;fontColor=#6C767D;strokeColor=#CED4DA;fillColor=#ffffff;align=left;spacing=10;" vertex="1" parent="1">
          <mxGeometry x="-633" y="80" width="440" height="35" as="geometry" />
        </mxCell>
        <mxCell id="E6454Eb-Kwbi7CJtDsJ3-2" value="" style="html=1;shadow=0;dashed=0;shape=mxgraph.bootstrap.radioButton2;labelPosition=right;verticalLabelPosition=middle;align=left;verticalAlign=middle;gradientColor=#DEDEDE;fillColor=#EDEDED;checked=0;spacing=5;checkedFill=#0085FC;checkedStroke=#ffffff;sketch=0;fontColor=#B0C1CC;" vertex="1" parent="1">
          <mxGeometry x="-655" y="92.5" width="10" height="10" as="geometry" />
        </mxCell>
        <mxCell id="E6454Eb-Kwbi7CJtDsJ3-3" value="&lt;i&gt;&lt;font color=&quot;#b0c1cc&quot;&gt;To&lt;/font&gt;&lt;/i&gt;" style="html=1;shadow=0;dashed=0;shape=mxgraph.bootstrap.rrect;rSize=5;fontSize=14;fontColor=#6C767D;strokeColor=#CED4DA;fillColor=#ffffff;align=left;spacing=10;" vertex="1" parent="1">
          <mxGeometry x="-633" y="180" width="440" height="35" as="geometry" />
        </mxCell>
        <mxCell id="E6454Eb-Kwbi7CJtDsJ3-4" value="" style="html=1;shadow=0;dashed=0;shape=mxgraph.bootstrap.radioButton2;labelPosition=right;verticalLabelPosition=middle;align=left;verticalAlign=middle;gradientColor=#DEDEDE;fillColor=#EDEDED;checked=0;spacing=5;checkedFill=#0085FC;checkedStroke=#ffffff;sketch=0;fontColor=#B0C1CC;" vertex="1" parent="1">
          <mxGeometry x="-655" y="192.5" width="10" height="10" as="geometry" />
        </mxCell>
        <mxCell id="E6454Eb-Kwbi7CJtDsJ3-5" value="" style="endArrow=none;html=1;rounded=0;fontColor=#B0C1CC;" edge="1" parent="1" source="E6454Eb-Kwbi7CJtDsJ3-4" target="E6454Eb-Kwbi7CJtDsJ3-2">
          <mxGeometry width="50" height="50" relative="1" as="geometry">
            <mxPoint x="-655" y="170" as="sourcePoint" />
            <mxPoint x="-645" y="130" as="targetPoint" />
          </mxGeometry>
        </mxCell>
        <mxCell id="E6454Eb-Kwbi7CJtDsJ3-6" value="" style="rounded=1;fillColor=#ffffff;strokeColor=#DFE1E5;shadow=1;html=1;arcSize=4;sketch=1;hachureGap=4;pointerEvents=0;fontFamily=Architects Daughter;fontSource=https%3A%2F%2Ffonts.googleapis.com%2Fcss%3Ffamily%3DArchitects%2BDaughter;fontSize=20;fontColor=#B0C1CC;" vertex="1" parent="1">
          <mxGeometry x="-820" y="180" width="80" height="30" as="geometry" />
        </mxCell>
        <mxCell id="E6454Eb-Kwbi7CJtDsJ3-8" value="Step 2:&amp;nbsp;" style="fillColor=none;strokeColor=none;html=1;fontSize=14;fontStyle=0;fontColor=#000000;align=left;whiteSpace=wrap;sketch=1;hachureGap=4;pointerEvents=0;fontFamily=Architects Daughter;fontSource=https%3A%2F%2Ffonts.googleapis.com%2Fcss%3Ffamily%3DArchitects%2BDaughter;" vertex="1" parent="E6454Eb-Kwbi7CJtDsJ3-6">
          <mxGeometry width="60" height="30" relative="1" as="geometry">
            <mxPoint x="10" as="offset" />
          </mxGeometry>
        </mxCell>
        <mxCell id="E6454Eb-Kwbi7CJtDsJ3-10" value="" style="rounded=1;fillColor=#ffffff;strokeColor=#DFE1E5;shadow=1;html=1;arcSize=4;sketch=1;hachureGap=4;pointerEvents=0;fontFamily=Architects Daughter;fontSource=https%3A%2F%2Ffonts.googleapis.com%2Fcss%3Ffamily%3DArchitects%2BDaughter;fontSize=20;fontColor=#B0C1CC;" vertex="1" parent="1">
          <mxGeometry x="-820" y="85" width="80" height="30" as="geometry" />
        </mxCell>
        <mxCell id="E6454Eb-Kwbi7CJtDsJ3-11" value="Step 1:&amp;nbsp;" style="fillColor=none;strokeColor=none;html=1;fontSize=14;fontStyle=0;fontColor=#000000;align=left;whiteSpace=wrap;sketch=1;hachureGap=4;pointerEvents=0;fontFamily=Architects Daughter;fontSource=https%3A%2F%2Ffonts.googleapis.com%2Fcss%3Ffamily%3DArchitects%2BDaughter;" vertex="1" parent="E6454Eb-Kwbi7CJtDsJ3-10">
          <mxGeometry width="60" height="30" relative="1" as="geometry">
            <mxPoint x="10" as="offset" />
          </mxGeometry>
        </mxCell>
        <mxCell id="E6454Eb-Kwbi7CJtDsJ3-15" value="" style="shape=image;html=1;verticalAlign=top;verticalLabelPosition=bottom;labelBackgroundColor=#ffffff;imageAspect=0;aspect=fixed;image=https://cdn4.iconfinder.com/data/icons/ionicons/512/icon-ios7-location-128.png;fontColor=#B0C1CC;" vertex="1" parent="1">
          <mxGeometry x="-200" y="440" width="30" height="30" as="geometry" />
        </mxCell>
        <mxCell id="E6454Eb-Kwbi7CJtDsJ3-16" value="" style="shape=image;html=1;verticalAlign=top;verticalLabelPosition=bottom;labelBackgroundColor=#ffffff;imageAspect=0;aspect=fixed;image=https://cdn0.iconfinder.com/data/icons/evericons-24px-vol-2/24/location-128.png;fontColor=#B0C1CC;" vertex="1" parent="1">
          <mxGeometry x="-660" y="260" width="20" height="20" as="geometry" />
        </mxCell>
        <mxCell id="E6454Eb-Kwbi7CJtDsJ3-22" value="" style="endArrow=none;html=1;rounded=0;fontColor=#B0C1CC;startArrow=none;" edge="1" parent="1" source="E6454Eb-Kwbi7CJtDsJ3-44" target="E6454Eb-Kwbi7CJtDsJ3-16">
          <mxGeometry width="50" height="50" relative="1" as="geometry">
            <mxPoint x="-190" y="460" as="sourcePoint" />
            <mxPoint x="-650" y="350" as="targetPoint" />
            <Array as="points">
              <mxPoint x="-320" y="390" />
              <mxPoint x="-360" y="430" />
              <mxPoint x="-580" y="410" />
              <mxPoint x="-630" y="370" />
            </Array>
          </mxGeometry>
        </mxCell>
        <mxCell id="E6454Eb-Kwbi7CJtDsJ3-24" value="" style="endArrow=none;html=1;rounded=0;fontColor=#B0C1CC;startArrow=none;" edge="1" parent="1" target="E6454Eb-Kwbi7CJtDsJ3-16" source="E6454Eb-Kwbi7CJtDsJ3-28">
          <mxGeometry width="50" height="50" relative="1" as="geometry">
            <mxPoint x="-189.99999999999977" y="460.344827586207" as="sourcePoint" />
            <mxPoint x="-630" y="285" as="targetPoint" />
            <Array as="points" />
          </mxGeometry>
        </mxCell>
        <mxCell id="E6454Eb-Kwbi7CJtDsJ3-25" value="" style="rounded=1;fillColor=#ffffff;strokeColor=#DFE1E5;shadow=1;html=1;arcSize=4;sketch=1;hachureGap=4;pointerEvents=0;fontFamily=Architects Daughter;fontSource=https%3A%2F%2Ffonts.googleapis.com%2Fcss%3Ffamily%3DArchitects%2BDaughter;fontSize=20;fontColor=#B0C1CC;" vertex="1" parent="1">
          <mxGeometry x="-820" y="320" width="80" height="30" as="geometry" />
        </mxCell>
        <mxCell id="E6454Eb-Kwbi7CJtDsJ3-26" value="Step 3:&amp;nbsp;" style="fillColor=none;strokeColor=none;html=1;fontSize=14;fontStyle=0;fontColor=#000000;align=left;whiteSpace=wrap;sketch=1;hachureGap=4;pointerEvents=0;fontFamily=Architects Daughter;fontSource=https%3A%2F%2Ffonts.googleapis.com%2Fcss%3Ffamily%3DArchitects%2BDaughter;" vertex="1" parent="E6454Eb-Kwbi7CJtDsJ3-25">
          <mxGeometry width="60" height="30" relative="1" as="geometry">
            <mxPoint x="10" as="offset" />
          </mxGeometry>
        </mxCell>
        <mxCell id="E6454Eb-Kwbi7CJtDsJ3-21" value="" style="html=1;shadow=0;dashed=0;shape=mxgraph.bootstrap.radioButton2;labelPosition=right;verticalLabelPosition=middle;align=left;verticalAlign=middle;gradientColor=#DEDEDE;fillColor=#EDEDED;checked=0;spacing=5;checkedFill=#0085FC;checkedStroke=#ffffff;sketch=0;fontColor=#B0C1CC;" vertex="1" parent="1">
          <mxGeometry x="-280" y="290" width="10" height="10" as="geometry" />
        </mxCell>
        <mxCell id="E6454Eb-Kwbi7CJtDsJ3-27" value="" style="endArrow=none;html=1;rounded=0;fontColor=#B0C1CC;startArrow=none;" edge="1" parent="1" target="E6454Eb-Kwbi7CJtDsJ3-21">
          <mxGeometry width="50" height="50" relative="1" as="geometry">
            <mxPoint x="-187.81249999999977" y="450" as="sourcePoint" />
            <mxPoint x="-640" y="270.7142857142858" as="targetPoint" />
            <Array as="points" />
          </mxGeometry>
        </mxCell>
        <mxCell id="E6454Eb-Kwbi7CJtDsJ3-28" value="" style="html=1;shadow=0;dashed=0;shape=mxgraph.bootstrap.radioButton2;labelPosition=right;verticalLabelPosition=middle;align=left;verticalAlign=middle;gradientColor=#DEDEDE;fillColor=#EDEDED;checked=0;spacing=5;checkedFill=#0085FC;checkedStroke=#ffffff;sketch=0;fontColor=#B0C1CC;" vertex="1" parent="1">
          <mxGeometry x="-520" y="270" width="10" height="10" as="geometry" />
        </mxCell>
        <mxCell id="E6454Eb-Kwbi7CJtDsJ3-29" value="" style="endArrow=none;html=1;rounded=0;fontColor=#B0C1CC;startArrow=none;" edge="1" parent="1" source="E6454Eb-Kwbi7CJtDsJ3-21" target="E6454Eb-Kwbi7CJtDsJ3-28">
          <mxGeometry width="50" height="50" relative="1" as="geometry">
            <mxPoint x="-370" y="274.6153846153845" as="sourcePoint" />
            <mxPoint x="-640" y="270.7142857142858" as="targetPoint" />
            <Array as="points" />
          </mxGeometry>
        </mxCell>
        <mxCell id="E6454Eb-Kwbi7CJtDsJ3-33" value="" style="html=1;shadow=0;dashed=0;shape=mxgraph.bootstrap.radioButton2;labelPosition=right;verticalLabelPosition=middle;align=left;verticalAlign=middle;gradientColor=#DEDEDE;fillColor=#EDEDED;checked=0;spacing=5;checkedFill=#0085FC;checkedStroke=#ffffff;sketch=0;fontColor=#B0C1CC;" vertex="1" parent="1">
          <mxGeometry x="-370" y="430" width="10" height="10" as="geometry" />
        </mxCell>
        <mxCell id="E6454Eb-Kwbi7CJtDsJ3-30" value="" style="html=1;shadow=0;dashed=0;shape=mxgraph.bootstrap.radioButton2;labelPosition=right;verticalLabelPosition=middle;align=left;verticalAlign=middle;gradientColor=#DEDEDE;fillColor=#EDEDED;checked=0;spacing=5;checkedFill=#0085FC;checkedStroke=#ffffff;sketch=0;fontColor=#B0C1CC;" vertex="1" parent="1">
          <mxGeometry x="-633" y="360" width="10" height="10" as="geometry" />
        </mxCell>
        <mxCell id="E6454Eb-Kwbi7CJtDsJ3-38" value="" style="html=1;shadow=0;dashed=0;shape=mxgraph.bootstrap.radioButton2;labelPosition=right;verticalLabelPosition=middle;align=left;verticalAlign=middle;gradientColor=#DEDEDE;fillColor=#EDEDED;checked=0;spacing=5;checkedFill=#0085FC;checkedStroke=#ffffff;sketch=0;fontColor=#B0C1CC;" vertex="1" parent="1">
          <mxGeometry x="-580" y="400" width="10" height="10" as="geometry" />
        </mxCell>
        <mxCell id="E6454Eb-Kwbi7CJtDsJ3-40" value="&lt;i&gt;&lt;font color=&quot;#b0c1cc&quot;&gt;add a layover&lt;/font&gt;&lt;/i&gt;" style="html=1;shadow=0;dashed=0;shape=mxgraph.bootstrap.rrect;rSize=5;fontSize=14;fontColor=#6C767D;strokeColor=#CED4DA;fillColor=#ffffff;align=left;spacing=10;" vertex="1" parent="1">
          <mxGeometry x="-630" y="520" width="440" height="35" as="geometry" />
        </mxCell>
        <mxCell id="E6454Eb-Kwbi7CJtDsJ3-41" value="" style="rounded=1;fillColor=#ffffff;strokeColor=#DFE1E5;shadow=1;html=1;arcSize=4;sketch=1;hachureGap=4;pointerEvents=0;fontFamily=Architects Daughter;fontSource=https%3A%2F%2Ffonts.googleapis.com%2Fcss%3Ffamily%3DArchitects%2BDaughter;fontSize=20;fontColor=#B0C1CC;" vertex="1" parent="1">
          <mxGeometry x="-820" y="520" width="80" height="30" as="geometry" />
        </mxCell>
        <mxCell id="E6454Eb-Kwbi7CJtDsJ3-42" value="Step 4:&amp;nbsp;" style="fillColor=none;strokeColor=none;html=1;fontSize=14;fontStyle=0;fontColor=#000000;align=left;whiteSpace=wrap;sketch=1;hachureGap=4;pointerEvents=0;fontFamily=Architects Daughter;fontSource=https%3A%2F%2Ffonts.googleapis.com%2Fcss%3Ffamily%3DArchitects%2BDaughter;" vertex="1" parent="E6454Eb-Kwbi7CJtDsJ3-41">
          <mxGeometry width="60" height="30" relative="1" as="geometry">
            <mxPoint x="10" as="offset" />
          </mxGeometry>
        </mxCell>
        <mxCell id="E6454Eb-Kwbi7CJtDsJ3-44" value="" style="html=1;shadow=0;dashed=0;shape=mxgraph.bootstrap.radioButton2;labelPosition=right;verticalLabelPosition=middle;align=left;verticalAlign=middle;gradientColor=#DEDEDE;fillColor=#EDEDED;checked=0;spacing=5;checkedFill=#0085FC;checkedStroke=#ffffff;sketch=0;fontColor=#B0C1CC;" vertex="1" parent="1">
          <mxGeometry x="-330" y="390" width="10" height="10" as="geometry" />
        </mxCell>
        <mxCell id="E6454Eb-Kwbi7CJtDsJ3-45" value="" style="endArrow=none;html=1;rounded=0;fontColor=#B0C1CC;startArrow=none;" edge="1" parent="1" target="E6454Eb-Kwbi7CJtDsJ3-44">
          <mxGeometry width="50" height="50" relative="1" as="geometry">
            <mxPoint x="-189.99999999999977" y="460" as="sourcePoint" />
            <mxPoint x="-648" y="280" as="targetPoint" />
            <Array as="points" />
          </mxGeometry>
        </mxCell>
      </root>
    </mxGraphModel>
  </diagram>
</mxfile>
